<svg xmlns="http://www.w3.org/2000/svg" width="112" height="29" fill="none"><g fill="#fff" opacity=".6"><path d="M25 5.3c-1 0-1.7-.5-2.1-1.4a12.8 12.8 0 0 0-7 2.3c-.4.4-.6.7-.6.9 0 .2 0 .4.3.5a22.7 22.7 0 0 0 2.5.8l5.5 1.4c1.5.6 2.7 1.1 3.5 1.8.7.6 1 1.4 1 2.5 0 .9-.2 1.6-.8 2.2-.5.6-1.2 1.2-2.1 1.7-.9.4-1.9.9-3 1.2a32.8 32.8 0 0 1-7.1 1.6 44 44 0 0 1-6 .5c-3 0-5.3-.3-6.9-1-.6-.3-1-1-1.5-2.1-.3-1-.4-1.7-.4-2.2l.1-1H1l1.3.3 1.8.4a36.7 36.7 0 0 0 14.9.5c1-.3 1.5-.5 1.5-.9 0-.2-.7-.6-2.2-1l-2.5-.6c-4.4-1-7.1-1.8-8-2.1-1-.3-1.6-.6-1.9-.8l-.7-.8c-.3-.6-.5-1.2-.5-1.7l.1-1.2c0-.3.2-.6.3-.8.2-.5.4-.8.8-1 2.6-1.5 6.4-2.8 11.5-3.9 4.4-1 8.1-1.5 11-1.5.6 0 1 .1 1.4.3.5.4.7.8.6 1.2 0 .5-.1.8-.3 1.2l-.8 1a5.7 5.7 0 0 1-2 1.3c-.9.3-1.6.4-2.3.4Z"/><path d="m35.5 16.8 1.4-.6 6-3.1.7-.4c.6-.4 1-.7.9-1-.1-.5-.4-.7-.9-.6a12.1 12.1 0 0 0-2.9 1c-1.1.4-2.1.9-3 1.4l-5.3 3-1.2 3-1.9 5.2a9 9 0 0 1-1.7 3.3c-.3.3-.7.5-1 .5-1 0-1.8-.3-2.3-1-.6-.7-.8-1.5-.8-2.5s.1-2 .4-3c.2-1 .6-2 1-3 1-2.1 2.3-4 3.8-5.8a23.2 23.2 0 0 1 8.7-10.7c.6-.3 1-.5 1.5-.5.4 0 .7.1 1 .3.1.2.3.4.3.7a13 13 0 0 1-1 2.5l-1 1.7-1.3 1.9-.2.4c0 .2.2.3.4.3l1.5-.5L41 8c2.1-1 4.2-1.4 6.1-1.4 1 0 2 .5 2.9 1.4.9 1 1.3 2 1.3 3.2 0 1.7-.7 3-2 4l-2 1.2-2 1.3L43 19c-2.4 1.3-4.3 1.9-5.7 1.9-1.3 0-2.3-.2-3-.5-.5-.3-.8-.8-.8-1.4 0-.8.6-1.6 2-2.2Z"/><path d="M76.4 9.2c.3 0 .5.3.5.8 0 1-.7 2.2-2 3.7l-.9.9a22 22 0 0 1-7.4 5.3c-1.4.5-2.5.5-3.1-.1-.5-.5-1-1.3-1.2-2.4l-.4-1.4-3.2 2-2 1.1c-2.1 1.2-3.8 1.8-5 1.8-1.4 0-2.6-.5-3.5-1.6-1-1-1.4-2.3-1.4-3.7a5 5 0 0 1 1.6-3.6c1.6-1.5 4-3 7.4-4.2C59 6.6 61.5 6 63.5 6c.6 0 1 .3 1 1 0 .4-.1.8-.3 1l-1 .7-2 .8c-2.8 1.2-5 2.4-6.2 3.7-.4.4-.6.7-.6 1 0 .4.3.5.8.5S57 14.2 59 13l1.3-.7c2-1.2 3.6-1.8 4.9-1.8 1.1 0 1.8.5 2.2 1.5a18.9 18.9 0 0 1 .5 1.5l.5.8.6-.2a11.3 11.3 0 0 0 2-1.4l1.8-1.5c1.6-1.3 2.9-2 3.7-2Z"/><path d="M94 10.8c0 .5-.7 1.4-1.9 2.8a24.4 24.4 0 0 1-3.8 3.4 20.7 20.7 0 0 1-11 4c-1 0-1.8 0-2.4-.2L73 20A6.3 6.3 0 0 1 71 18c-.5-.8-.8-1.6-.8-2.2a6.2 6.2 0 0 1 .9-3.3c.9-1.6 2.7-3.1 5.5-4.4A23.3 23.3 0 0 1 84.7 6l.9.1.7.4c.4.2.6.6.6 1.2 0 .5-.2 1-.4 1.4a4.3 4.3 0 0 1-3.7 2 9 9 0 0 1-3.3-.5c-.6.2-1 .6-1.5 1.2-.3.4-.5.9-.5 1.2a2.6 2.6 0 0 0 1 2c.6.6 1.4 1 2.4 1 2.2 0 4.7-1.2 7.6-3.6l1.4-1c1.5-1.2 2.5-1.7 3.1-1.7.7 0 1 .4 1 1.2Z"/><path d="M110.5 9.4c.5 0 .8.3.8.9l-.4 1.4-1 1.5a24.2 24.2 0 0 1-3.8 3.1 32.6 32.6 0 0 1-5.8 3.2c-2.4 1-4.7 1.5-7 1.5-1.8 0-3.3-.4-4.6-1.3-1.3-1-2-2.1-2-3.5 0-2 1.1-4.1 3.4-6a21.4 21.4 0 0 1 11-4.7c1 0 1.8.3 2.4.7.7.5 1 1.1 1 2 0 1.3-1 2.7-3 4.3l-1 .6-.5.4c-1 .7-2.5 1.5-4.6 2.4.6.3 1.2.5 1.8.5l1.5-.2 1.5-.6a25.7 25.7 0 0 0 3.7-2 28 28 0 0 0 3.8-2.8 6 6 0 0 1 2.1-1.2l.7-.2Zm-16.8 4.3.9-.4.7-.4 3.5-2.2c.3-.2.4-.4.4-.5v-.4l-.3-.4c-.2-.3-.5-.4-.8-.4l-.9.1-1 .5a5.7 5.7 0 0 0-1.7 1.4c-.6.6-.9 1.2-.9 1.7l.1 1Z"/></g></svg>